inDegrees=yes
name=ik_S50_A13_T01
DataType=double
version=3
OpenSimVersion=4.3-2021-08-27-4bc7ad9
endheader
time	pelvis_tilt	pelvis_list	pelvis_rotation	pelvis_tx	pelvis_ty	pelvis_tz	hip_flexion_r	hip_adduction_r	hip_rotation_r	knee_angle_r	knee_angle_r_beta	ankle_angle_r	subtalar_angle_r	mtp_angle_r	hip_flexion_l	hip_adduction_l	hip_rotation_l	knee_angle_l	knee_angle_l_beta	ankle_angle_l	subtalar_angle_l	mtp_angle_l	lumbar_extension	lumbar_bending	lumbar_rotation	arm_flex_r	arm_add_r	arm_rot_r	elbow_flex_r	pro_sup_r	wrist_flex_r	wrist_dev_r	arm_flex_l	arm_add_l	arm_rot_l	elbow_flex_l	pro_sup_l	wrist_flex_l	wrist_dev_l
10.73999999999986	-0.5788232742051876	-0.127223233566613	31.82920055039729	0	0.9399999999999999	0	32.3096403612684	-9.637255174624807	-9.018577121821316	36.15032736453593	0.6309422381849564	0	0	0	32.3096403612684	-9.637255174624807	-9.018577121821316	36.15032736453593	0.6309422381849564	0	0	0	-0.2043365367079472	0.91578368937997	5.125182323166218	46.66410832403496	0.4802977692651615	16.18275465463388	97.54356895911242	-9.992204850200489	0	0	57.07617736643711	-2.069623450018869	18.75429476890165	48.62934370498444	121.7929296588178	0	0
10.75999999999986	-0.5788234027798517	-0.1173784403381141	31.69623635157931	0	0.9399999999999999	0	32.31921904417067	-9.638180365475248	-9.020185888356995	36.16046123882465	0.6311191076572777	0	0	0	32.31921904417067	-9.638180365475248	-9.020185888356995	36.16046123882465	0.6311191076572777	0	0	0	-0.1977133319607124	0.9235295986813347	5.200734627113728	46.61298171035958	1.037021579550135	15.17649390271186	95.33643172264695	-9.992281979242044	0	0	57.16942518470457	-2.269070622278806	18.52555189765907	48.78082859378388	126.5663292197031	0	0
10.77999999999986	-0.5791011657747602	-0.1133411490394192	31.56679358960034	0	0.9399999999999999	0	32.59794657663476	-9.659706951598576	-9.061381451793961	36.48968588286374	0.6368651616744662	0	0	0	32.59794657663476	-9.659706951598576	-9.061381451793961	36.48968588286374	0.6368651616744662	0	0	0	-0.1436726983974854	0.9305627961373422	5.282684515001956	46.57765754688743	1.414670308901641	14.078373781619	93.31216649524207	-9.992286471348525	0	0	57.81381306260267	-3.190789217542137	23.21410168206992	49.79451165902402	127.5204164001077	0	0
10.79999999999986	-0.5830125698501591	-0.1171008983590735	31.55406126558249	0	0.9399999999999999	0	32.8844974104424	-9.682911369701799	-9.105093788456175	36.81393021195979	0.6425242927981123	0	0	0	32.8844974104424	-9.682911369701799	-9.105093788456175	36.81393021195979	0.6425242927981123	0	0	0	-0.1307114079490885	0.9243909134894943	5.262527803149514	46.6341664274471	1.411364825380606	13.06696065082786	92.12924109721391	-9.992232077873581	0	0	58.5563047395763	-4.383856787826289	25.45973792293868	50.60543289276441	129.2082638927937	0	0
10.81999999999986	-0.5770717531907711	-0.1039591658853199	31.41855956061199	0	0.9399999999999999	0	32.89095009240945	-9.683484368421318	-9.106132455789764	36.82079624715229	0.6426441277187792	0	0	0	32.89095009240945	-9.683484368421318	-9.106132455789764	36.82079624715229	0.6426441277187792	0	0	0	-0.1164029171846479	0.9307264404563909	5.358872847034227	46.50270158920593	1.019998097131007	12.62655500825374	92.23022818996655	-9.992267696815471	0	0	58.787861043294	-4.830970053447477	25.63895422304729	51.05689383534233	131.1294883133105	0	0
10.83999999999986	-0.589458992590644	-0.1023722561621204	31.4547187106003	0	0.9399999999999999	0	32.89631581346023	-9.683955493812165	-9.106990013477624	36.82655839460038	0.6427446961637338	0	0	0	32.89631581346023	-9.683955493812165	-9.106990013477624	36.82655839460038	0.6427446961637338	0	0	0	-0.1261905222283271	0.9385885834666725	5.276369217948781	46.2942106770891	0.6972794510218639	12.96877895399557	92.6550183056851	-9.992308735539211	0	0	59.0377500082941	-5.193766610470007	25.91327294294673	51.46412045942609	132.4226730044844	0	0
10.85999999999986	-0.6114781987038287	-0.1034805505209999	31.61523807001404	0	0.9399999999999999	0	32.90851086171143	-9.68503398733127	-9.10894922250098	36.83953712953177	0.6429712178210302	0	0	0	32.90851086171143	-9.68503398733127	-9.10894922250098	36.83953712953177	0.6429712178210302	0	0	0	-0.1468386602153354	0.9490138633443318	5.072126011521981	45.95153799384201	0.4471773453780962	14.00481503462554	93.88931909741075	-9.99237304770949	0	0	59.26971901803774	-5.298359724523562	26.43598933642443	51.71116491705932	133.6379509678829	0	0
10.87999999999986	-0.6111466251351417	-0.1055916170100645	31.7711679239555	0	0.9399999999999999	0	32.91462069826508	-9.685574174954224	-9.109930680976843	36.8460395504733	0.6430847064758105	0	0	0	32.91462069826508	-9.685574174954224	-9.109930680976843	36.8460395504733	0.6430847064758105	0	0	0	-0.1484947659341556	0.9472855256607777	4.857635054910553	45.53921175627884	0.6196882635045705	15.15867724450135	94.72464732085845	-9.99242093956034	0	0	59.37489625345403	-5.310127079635449	26.8902172048066	51.7912049518923	134.3976754320705	0	0
10.89999999999986	-0.6493799952449566	-0.1230929800784214	31.87765297180165	0	0.9399999999999999	0	32.92000250762287	-9.6860503974686	-9.110795819833937	36.85175795029336	0.6431845113806159	0	0	0	32.92000250762287	-9.6860503974686	-9.110795819833937	36.85175795029336	0.6431845113806159	0	0	0	-0.1906472847604421	0.9528623315650695	4.730826135290005	45.29808890985647	0.8486002441762334	15.94530632794677	95.23596931541556	-9.99241668505892	0	0	59.52791103135394	-5.265129995352972	27.07476221563035	51.8851622263301	134.5354649631252	0	0
10.91999999999986	-0.6685427358173275	-0.1387050023471759	31.8061193180581	0	0.9399999999999999	0	32.92604600497317	-9.686580801332584	-9.111762336879615	36.85822136721613	0.6432973192868474	0	0	0	32.92604600497317	-9.686580801332584	-9.111762336879615	36.85822136721613	0.6432973192868474	0	0	0	-0.215193691816904	0.9489817149976162	4.841424027963714	45.17082967007374	0.6843697322512606	15.56086591404499	95.93339181160002	-9.992505702801912	0	0	59.69567830775557	-5.023438755362037	26.73857991088492	51.73955471192894	134.6407560899338	0	0
10.93999999999986	-0.6962701408848674	-0.1533894650324747	31.87026476931372	0	0.9399999999999999	0	32.93016388752002	-9.686942828992937	-9.112421744594506	36.86261506737645	0.6433740038209904	0	0	0	32.93016388752002	-9.686942828992937	-9.112421744594506	36.86261506737645	0.6433740038209904	0	0	0	-0.2455676875262405	0.9513406471806581	4.790473381951329	45.2517068307424	0.6455128859756232	15.60222243757498	96.1792325671632	-9.992529622393649	0	0	59.90389179320952	-4.61345050702739	25.88960355380353	51.13932007363833	133.9694715788892	0	0
10.95999999999986	-0.7251225391142725	-0.1890253460244143	31.8106987946961	0	0.9399999999999999	0	32.93818148435248	-9.687650109037472	-9.113708745205933	36.87113473612023	0.6435227000917487	0	0	0	32.93818148435248	-9.687650109037472	-9.113708745205933	36.87113473612023	0.6435227000917487	0	0	0	-0.2879971869273312	0.9362052848491289	4.897396883370444	45.27361104740012	0.352010655488173	15.15921224529257	97.26385842407193	-9.99258415968777	0	0	60.0129440824072	-4.576251395951684	25.93893670325532	51.08235533834755	133.946745559467	0	0
10.97999999999985	-0.752036117779075	-0.2052806043065314	31.74553423295154	0	0.9399999999999999	0	32.9512166625453	-9.688793789857673	-9.115795132371495	36.88501191447213	0.6437649025448757	0	0	0	32.9512166625453	-9.688793789857673	-9.115795132371495	36.88501191447213	0.6437649025448757	0	0	0	-0.3227338661530949	0.9350931964287252	5.003734568802109	45.5422608582835	-0.6370573566183709	14.79126340987218	100.8826582259876	-9.992651150086642	0	0	60.24190744267641	-4.138241994786746	24.64430761239156	49.94974730198246	132.6308749978546	0	0
10.99999999999985	-0.7781501657054776	-0.1888514835172614	31.75912350423369	0	0.9399999999999999	0	33.38506156286649	-9.721740854196248	-9.179745473214904	37.39679718886918	0.6526972406463269	0	0	0	33.38506156286649	-9.721740854196248	-9.179745473214904	37.39679718886918	0.6526972406463269	0	0	0	-0.3479107357663745	0.9291618487942417	4.978561144804147	45.91991170635354	-1.666337863231203	14.579753188845	103.0279707981984	-9.992569209715787	0	0	60.19746962081289	-3.826455264176368	23.23325658640314	48.78080868330214	127.4906032660573	0	0
